REM DIRINDEX 1\2\5,1\2\6,1\2\7,1\2\8,1\3\9,1\3\10,1\3\11,1\4\12,1\4\13,1\4\14,1\4\15,1\4\16
REM DIRNAME folder01,folder02,folder03,folder04,folder05,folder06,folder07,folder08,folder09,folder10,folder11,folder12,folder13,folder14,folder15,folder16
TITLE ""
FILE "1200_2_sec04_1252_1265.mp3" MP3
  TRACK 01 AUDIO
    TITLE "0:"
    INDEX 01 00:00:00
  TRACK 02 AUDIO
    TITLE "11:cjc034_02589"
    INDEX 01 00:00:15
  TRACK 03 AUDIO
    TITLE "0:"
    INDEX 01 00:02:65
  TRACK 04 AUDIO
    TITLE "10:cjc034_02590"
    INDEX 01 00:03:70
  TRACK 05 AUDIO
    TITLE "0:"
    INDEX 01 00:04:72
  TRACK 06 AUDIO
    TITLE "9:cjc034_02591"
    INDEX 01 00:05:03
  TRACK 07 AUDIO
    TITLE "0:"
    INDEX 01 00:06:00
  TRACK 08 AUDIO
    TITLE "10:cjc034_02592"
    INDEX 01 00:06:57
  TRACK 09 AUDIO
    TITLE "0:"
    INDEX 01 00:07:45
  TRACK 10 AUDIO
    TITLE "9:cjc034_02593"
    INDEX 01 00:07:51
  TRACK 11 AUDIO
    TITLE "0:"
    INDEX 01 00:08:60
  TRACK 12 AUDIO
    TITLE "10:cjc034_02594"
    INDEX 01 00:09:44
  TRACK 13 AUDIO
    TITLE "0:"
    INDEX 01 00:10:41
  TRACK 14 AUDIO
    TITLE "9:cjc034_02595"
    INDEX 01 00:10:43
  TRACK 15 AUDIO
    TITLE "0:"
    INDEX 01 00:11:48
  TRACK 16 AUDIO
    TITLE "10:cjc034_02596"
    INDEX 01 00:12:32
  TRACK 17 AUDIO
    TITLE "0:"
    INDEX 01 00:13:26
  TRACK 18 AUDIO
    TITLE "9:cjc034_02597"
    INDEX 01 00:13:28
  TRACK 19 AUDIO
    TITLE "0:"
    INDEX 01 00:14:27
  TRACK 20 AUDIO
    TITLE "11:cjc034_02598"
    INDEX 01 00:16:04
  TRACK 21 AUDIO
    TITLE "0:"
    INDEX 01 00:18:66
  TRACK 22 AUDIO
    TITLE "10:cjc034_02599"
    INDEX 01 00:19:73
  TRACK 23 AUDIO
    TITLE "0:"
    INDEX 01 00:22:50
  TRACK 24 AUDIO
    TITLE "9:cjc034_02600"
    INDEX 01 00:22:54
  TRACK 25 AUDIO
    TITLE "0:"
    INDEX 01 00:23:69
  TRACK 26 AUDIO
    TITLE "10:cjc034_02601"
    INDEX 01 00:24:55
  TRACK 27 AUDIO
    TITLE "0:"
    INDEX 01 00:27:08
  TRACK 28 AUDIO
    TITLE "9:cjc034_02602"
    INDEX 01 00:27:14
  TRACK 29 AUDIO
    TITLE "0:"
    INDEX 01 00:28:35
  TRACK 30 AUDIO
    TITLE "10:cjc034_02603"
    INDEX 01 00:29:19
  TRACK 31 AUDIO
    TITLE "0:"
    INDEX 01 00:31:39
  TRACK 32 AUDIO
    TITLE "9:cjc034_02604"
    INDEX 01 00:31:45
  TRACK 33 AUDIO
    TITLE "0:"
    INDEX 01 00:32:54
  TRACK 34 AUDIO
    TITLE "10:cjc034_02605"
    INDEX 01 00:33:38
  TRACK 35 AUDIO
    TITLE "0:"
    INDEX 01 00:35:17
  TRACK 36 AUDIO
    TITLE "9:cjc034_02606"
    INDEX 01 00:35:21
  TRACK 37 AUDIO
    TITLE "0:"
    INDEX 01 00:36:29
  TRACK 38 AUDIO
    TITLE "10:cjc034_02607"
    INDEX 01 00:37:12
  TRACK 39 AUDIO
    TITLE "0:"
    INDEX 01 00:38:00
  TRACK 40 AUDIO
    TITLE "9:cjc034_02608"
    INDEX 01 00:38:02
  TRACK 41 AUDIO
    TITLE "0:"
    INDEX 01 00:39:17
  TRACK 42 AUDIO
    TITLE "10:cjc034_02609"
    INDEX 01 00:40:03
  TRACK 43 AUDIO
    TITLE "0:"
    INDEX 01 00:41:16
  TRACK 44 AUDIO
    TITLE "9:cjc034_02610"
    INDEX 01 00:41:20
  TRACK 45 AUDIO
    TITLE "0:"
    INDEX 01 00:42:33
  TRACK 46 AUDIO
    TITLE "11:cjc034_02611"
    INDEX 01 00:44:09
  TRACK 47 AUDIO
    TITLE "0:"
    INDEX 01 00:46:68
  TRACK 48 AUDIO
    TITLE "10:cjc034_02612"
    INDEX 01 00:48:00
  TRACK 49 AUDIO
    TITLE "0:"
    INDEX 01 00:49:18
  TRACK 50 AUDIO
    TITLE "9:cjc034_02613"
    INDEX 01 00:49:25
  TRACK 51 AUDIO
    TITLE "0:"
    INDEX 01 00:50:56
  TRACK 52 AUDIO
    TITLE "10:cjc034_02614"
    INDEX 01 00:51:42
  TRACK 53 AUDIO
    TITLE "0:"
    INDEX 01 00:52:51
  TRACK 54 AUDIO
    TITLE "9:cjc034_02615"
    INDEX 01 00:52:57
  TRACK 55 AUDIO
    TITLE "0:"
    INDEX 01 00:53:72
  TRACK 56 AUDIO
    TITLE "10:cjc034_02616"
    INDEX 01 00:54:56
  TRACK 57 AUDIO
    TITLE "0:"
    INDEX 01 00:55:42
  TRACK 58 AUDIO
    TITLE "9:cjc034_02617"
    INDEX 01 00:55:48
  TRACK 59 AUDIO
    TITLE "0:"
    INDEX 01 00:56:45
  TRACK 60 AUDIO
    TITLE "10:cjc034_02618"
    INDEX 01 00:57:29
  TRACK 61 AUDIO
    TITLE "0:"
    INDEX 01 00:59:51
  TRACK 62 AUDIO
    TITLE "9:cjc034_02619"
    INDEX 01 00:59:53
  TRACK 63 AUDIO
    TITLE "0:"
    INDEX 01 01:00:70
